<svg version="1" xmlns="http://www.w3.org/2000/svg" width="170.667" height="170.667" viewBox="0 0 128.000000 128.000000"><path d="M50 1.6C26.6 6.6 6.4 27 1.5 50.5c-9.5 45.4 30.6 85.5 76 76 23.8-5 44-25.2 49-49C136 31.9 95.6-8.2 50 1.6zm24.3 8.9c11.2 2.9 18.4 7 26.1 14.7C111 35.9 115.1 46.3 114.9 62c-.1 7.7-1.5 16.8-1.8 11.5-.4-7.6-10.4-19.2-18.5-21.6l-4.5-1.3.6-6.5c.3-3.7 0-8.4-.6-10.7-1.3-5-5.8-11.3-10.1-14.4l-3.1-2.2 3.2 4.5c4 5.7 4.9 12.7 2.5 19.1l-1.7 4.4-4.7-2.6c-3.9-2.3-5.9-2.7-12.2-2.7-6.3 0-8.3.4-12.2 2.7l-4.7 2.6-1.7-4.4C43 34 43.9 27 47.9 21.3l3.2-4.5L48 19c-4.3 3.1-8.8 9.4-10.1 14.4-.6 2.3-.9 7-.6 10.7l.6 6.5-4.5 1.3c-8.3 2.5-18.3 14.4-18.5 22v2.6L13.8 74c-1.4-3.5-1.4-17.3.1-24.5C16.5 37.2 25.5 24.2 36 17.8c12.5-7.6 26.6-10.3 38.3-7.3zM72 46.6c2.2.9 4 1.9 4 2.3 0 1.6-7.4 4.1-12 4.1s-12-2.5-12-4.1c0-1.3 7.5-3.8 11.7-3.8 2.4-.1 6.1.6 8.3 1.5zm-3.9 13.2c2.7 2.3 3 7.5.6 9.9-2.1 2.1-7.3 2.1-9.4 0-2.4-2.4-2.1-7.6.6-9.9 1.3-1 3.1-1.8 4.1-1.8 1 0 2.8.8 4.1 1.8zm-29.8 7c.8 9.2 4.9 15.5 13.7 21.3l2.4 1.6-2.2 3.1c-4.1 5.7-12 9-18.7 7.8-3.6-.7-8.9-5.6-13.7-12.8-5.8-8.5-2.5-19.3 7.4-24.2 2.8-1.4 6.4-2.6 7.9-2.6 2.5 0 2.7.3 3.2 5.8zm62.5-3.2c6.2 3.1 10.2 8.9 10.2 15 0 7.5-10 20.8-16.5 22-5.4 1-12.3-1.4-16.7-5.8-2.1-2.1-3.8-4.2-3.8-4.7s1.2-1.7 2.8-2.6c8-5.1 12.1-11.7 12.9-20.7.5-5.5.7-5.8 3.2-5.8 1.5 0 5.1 1.2 7.9 2.6zm-50.9 3.3C54 71 56.5 76.8 55.8 81c-.3 2.4-.3 2.4-4.2-1-4.3-3.8-7.5-9.9-7.6-14.3 0-3.7 1.3-3.4 5.9 1.2zM84 65.7c-.1 4.4-3.3 10.5-7.6 14.3-3.9 3.4-3.9 3.4-4.2 1-.7-4.2 1.8-10 5.9-14.1 4.6-4.6 5.9-4.9 5.9-1.2zM68.6 98.5c6.3 4.8 14.3 7.1 20.9 5.8 2.7-.6 5.9-1.3 7-1.7 1.1-.4-1.1.9-5 2.9-10.6 5.5-18.3 7.6-27.8 7.6-4.5-.1-10.3-.7-12.9-1.5-6.6-2.1-24.5-10.4-25.5-11.9-.3-.5 1.7.3 4.4 1.6 10.1 5.2 20.8 4.2 29.5-2.7 2.4-1.9 4.4-3.5 4.5-3.5.2-.1 2.3 1.5 4.9 3.4zm34.4 1c0 .2-1 .9-2.2 1.5-2.2 1.1-2.2 1-.4-.4 2.1-1.7 2.6-1.9 2.6-1.1z"/></svg>